<?xml version="1.0" encoding="utf-8"?>
<!-- Generator: Adobe Illustrator 18.1.1, SVG Export Plug-In . SVG Version: 6.00 Build 0)  -->
<!DOCTYPE svg PUBLIC "-//W3C//DTD SVG 1.1//EN" "http://www.w3.org/Graphics/SVG/1.1/DTD/svg11.dtd">
<svg version="1.1" id="Layer_1" xmlns="http://www.w3.org/2000/svg" xmlns:xlink="http://www.w3.org/1999/xlink" x="0px" y="0px"
	 viewBox="0 0 185 85" enable-background="new 0 0 185 85" xml:space="preserve">
<g>
	<path fill="#24BCF4" d="M51.5,76.5c0,4.6-3.9,8.5-8.6,8.5H8.6C3.9,85,0,81.1,0,76.5v-68C0,3.9,3.9,0,8.6,0h34.3
		c4.7,0,8.6,3.9,8.6,8.5V76.5z M45.1,19.1c0-1.1-1-2.1-2.1-2.1H8.6c-1.1,0-2.1,1-2.1,2.1v46.8c0,1.1,1,2.1,2.1,2.1h34.3
		c1.1,0,2.1-1,2.1-2.1V19.1z M31.1,8.5H20.4c-0.6,0-1.1,0.5-1.1,1.1c0,0.6,0.5,1.1,1.1,1.1h10.7c0.6,0,1.1-0.5,1.1-1.1
		C32.2,9,31.7,8.5,31.1,8.5z M25.7,71.2c-2.9,0-5.4,2.4-5.4,5.3s2.4,5.3,5.4,5.3s5.4-2.4,5.4-5.3S28.7,71.2,25.7,71.2z"/>
	<path fill="#24BCF4" d="M185,72.2v6.4c0,3.5-4.8,6.4-10.7,6.4H67c-5.9,0-10.7-2.9-10.7-6.4v-6.4H67h107.3H185z M73.4,57.4V10.6
		C73.4,4.8,78.3,0,84.2,0h72.9c5.9,0,10.7,4.8,10.7,10.6v46.8c0,5.8-4.8,10.6-10.7,10.6H84.2C78.3,68,73.4,63.2,73.4,57.4z M82,57.4
		c0,1.1,1,2.1,2.1,2.1h72.9c1.1,0,2.1-1,2.1-2.1V10.6c0-1.1-1-2.1-2.1-2.1H84.2c-1.1,0-2.1,1-2.1,2.1V57.4z M127.1,77.6
		c0-0.6-0.5-1.1-1.1-1.1h-10.7c-0.6,0-1.1,0.5-1.1,1.1c0,0.6,0.5,1.1,1.1,1.1H126C126.6,78.6,127.1,78.2,127.1,77.6z"/>
</g>
</svg>
